<svg width="39" height="41" viewBox="0 0 39 41" fill="none" xmlns="http://www.w3.org/2000/svg">
<path d="M16.5468 37.4199C13.3063 38.5994 9.72306 36.9285 8.54361 33.688L1.67582 14.8188C5.21696 13.8213 8.98111 15.7084 10.2599 19.2217L16.7359 37.0144C16.7954 37.1786 16.7108 37.3599 16.5468 37.4199Z" stroke="white" stroke-width="1.5"/>
<path d="M37.6075 27.7247C34.0781 28.7437 30.3137 26.8667 29.0385 23.3631L21.9823 3.97646C21.9569 3.90656 21.9929 3.82917 22.0628 3.80373C25.3978 2.59013 29.0854 4.31024 30.2992 7.64516L37.6075 27.7247Z" stroke="white" stroke-width="1.5"/>
<path d="M25.4684 28.0557C21.9389 29.0748 18.1745 27.1978 16.8993 23.6942L13.5646 14.5322C17.1057 13.5347 20.8695 15.421 22.1484 18.9341L25.4684 28.0557Z" stroke="white" stroke-width="1.5"/>
</svg>
